# xmcd
#
# Track frame offsets:
#	150
#	13723
#	26171
#	38348
#	50530
#	60909
#	77404
#	94257
#	107483
#	126065
#	137623
#	150416
#	164401
#	182337
#	198952
#	214419
#	227988
#	243034
#
# Disc length: 3520 seconds
# Revision: 0
# Processed by: cddbd v1.5.2PL0 Copyright (c) Steve Scherf et al.
# Submitted via: dBpowerAMP V12.0
#
DISCID=d90dbe12
DTITLE=Various Artist - The Essential Johnny Cash, Disc 2
DYEAR=1965
DGENRE=Country*
TTITLE0=Johnny Cash with June Carter Cash - It Ain't Me, Babe 
TTITLE1=Johnny Cash - The One On The Right Is On The Left
TTITLE2=Johnny Cash with June Carter Cash - Jackson 
TTITLE3=Johnny Cash - Folsom Prison Blues (Live Version)
TTITLE4=Johnny Cash - Daddy Sang Bass
TTITLE5=Johnny Cash with Bob Dylan - Girl From The North Country
TTITLE6=Johnny Cash - A Boy Named Sue (Live Version)
TTITLE7=Johnny Cash with June Carter Cash - If I Were A Carpenter
TTITLE8=Johnny Cash - Sunday Morning Coming Down
TTITLE9=Johnny Cash - Flesh And Blood
TTITLE10=Johnny Cash - Man In Black
TTITLE11=Johnny Cash - Ragged Old Flag
TTITLE12=Johnny Cash - One Piece At A Time
TTITLE13=Johnny Cash - {Ghost} Riders In The Sky
TTITLE14=Johnny Cash with Marty Robbins - Song Of The Patriot
TTITLE15=Johnny Cash with Willie Nelson, Waylon Jennings and Kris Kristofferson - Highwayman
TTITLE16=Johnny Cash with Waylon Jennings - The Night Hank Williams Came To Town
TTITLE17=Johnny Cash feat. U2 - The Wanderer 
EXTD=
EXTT0=
EXTT1=
EXTT2=
EXTT3=
EXTT4=
EXTT5=
EXTT6=
EXTT7=
EXTT8=
EXTT9=
EXTT10=
EXTT11=
EXTT12=
EXTT13=
EXTT14=
EXTT15=
EXTT16=
EXTT17=
PLAYORDER=
